<svg xmlns="http://www.w3.org/2000/svg" xmlns:xlink="http://www.w3.org/1999/xlink" preserveAspectRatio="xMidYMid" width="52" height="55" viewBox="0 0 52 55">
  <defs>
    <style>
      .cls-1 {
        stroke: #fff;
        stroke-width: 1px;
        fill: none;
        opacity: 0.2;
      }

      .cls-2 {
        fill: #fff;
        fill-rule: evenodd;
      }
    </style>
  </defs>
  <g>
    <ellipse cx="26" cy="27.5" rx="25.5" ry="27" class="cls-1"/>
    <path d="M33.539,37.999 L17.461,37.999 C16.102,37.999 15.000,36.898 15.000,35.539 L15.000,19.461 C15.000,18.101 16.102,16.999 17.461,16.999 L33.539,16.999 C34.898,16.999 36.000,18.101 36.000,19.461 L36.000,35.539 C36.000,36.898 34.898,37.999 33.539,37.999 ZM18.825,25.603 L16.913,25.603 L16.913,35.865 C16.913,35.987 17.011,36.087 17.131,36.087 L33.869,36.087 C33.989,36.087 34.087,35.987 34.087,35.865 L34.087,25.603 L32.175,25.603 C32.313,26.157 32.387,26.737 32.387,27.336 C32.387,31.211 29.303,34.354 25.500,34.354 C21.696,34.354 18.613,31.211 18.613,27.336 C18.613,26.737 18.687,26.157 18.825,25.603 ZM25.500,23.439 C23.257,23.439 21.439,25.257 21.439,27.500 C21.439,29.742 23.257,31.560 25.500,31.560 C27.743,31.560 29.561,29.742 29.561,27.500 C29.561,25.257 27.743,23.439 25.500,23.439 ZM34.082,19.854 C34.082,19.325 33.656,18.896 33.131,18.896 L30.277,18.896 C29.751,18.896 29.325,19.325 29.325,19.854 L29.325,22.726 C29.325,23.256 29.751,23.684 30.277,23.684 L33.131,23.684 C33.656,23.684 34.082,23.256 34.082,22.726 L34.082,19.854 Z" class="cls-2"/>
  </g>
</svg>
