<svg xmlns="http://www.w3.org/2000/svg" xmlns:xlink="http://www.w3.org/1999/xlink" preserveAspectRatio="xMidYMid" width="52" height="55" viewBox="0 0 52 55">
  <defs>
    <style>
      .cls-1 {
        stroke: #fff;
        stroke-width: 1px;
        fill: none;
        opacity: 0.2;
      }

      .cls-2 {
        fill: #fff;
        fill-rule: evenodd;
      }
    </style>
  </defs>
  <g>
    <ellipse cx="26" cy="27.5" rx="25.5" ry="27" class="cls-1"/>
    <path d="M36.093,22.563 C35.427,22.858 34.712,23.057 33.961,23.148 C34.727,22.688 35.316,21.961 35.593,21.093 C34.875,21.519 34.081,21.828 33.236,21.994 C32.559,21.273 31.594,20.822 30.526,20.822 C28.476,20.822 26.814,22.484 26.814,24.535 C26.814,24.826 26.847,25.109 26.910,25.381 C23.825,25.226 21.090,23.748 19.259,21.501 C18.940,22.050 18.757,22.687 18.757,23.369 C18.757,24.656 19.412,25.792 20.408,26.458 C19.800,26.439 19.227,26.272 18.727,25.993 C18.727,26.009 18.727,26.025 18.727,26.042 C18.727,27.839 20.006,29.340 21.704,29.682 C21.393,29.765 21.065,29.812 20.726,29.812 C20.487,29.812 20.254,29.790 20.028,29.745 C20.500,31.221 21.871,32.294 23.495,32.323 C22.225,33.320 20.625,33.913 18.885,33.913 C18.585,33.913 18.290,33.896 18.000,33.861 C19.643,34.914 21.594,35.529 23.690,35.529 C30.517,35.529 34.251,29.872 34.251,24.966 C34.251,24.804 34.248,24.644 34.241,24.484 C34.966,23.961 35.595,23.308 36.093,22.563 Z" class="cls-2"/>
  </g>
</svg>
