<svg xmlns="http://www.w3.org/2000/svg" xmlns:xlink="http://www.w3.org/1999/xlink" preserveAspectRatio="xMidYMid" width="63" height="63" viewBox="0 0 63 63">
  <defs>
    <style>
      .cls-1 {
        fill: #2d3848;
      }

      .cls-1, .cls-2 {
        fill-rule: evenodd;
      }

      .cls-2 {
        stroke: #2d3848;
        stroke-width: 3px;
        fill: none;
      }
    </style>
  </defs>
  <g>
    <path d="M38.000,32.000 L32.000,32.000 L32.000,38.000 C32.000,39.105 31.105,40.000 30.000,40.000 C28.895,40.000 28.000,39.105 28.000,38.000 L28.000,32.000 L22.000,32.000 C20.895,32.000 20.000,31.105 20.000,30.000 C20.000,28.895 20.895,28.000 22.000,28.000 L28.000,28.000 L28.000,22.000 C28.000,20.895 28.895,20.000 30.000,20.000 C31.105,20.000 32.000,20.895 32.000,22.000 L32.000,28.000 L38.000,28.000 C39.105,28.000 40.000,28.895 40.000,30.000 C40.000,31.105 39.105,32.000 38.000,32.000 Z" class="cls-1"/>
    <path d="M31.500,1.500 C48.068,1.500 61.500,14.931 61.500,31.500 C61.500,48.069 48.068,61.500 31.500,61.500 C14.931,61.500 1.500,48.069 1.500,31.500 C1.500,14.931 14.931,1.500 31.500,1.500 Z" class="cls-2"/>
  </g>
</svg>
