<svg xmlns="http://www.w3.org/2000/svg" xmlns:xlink="http://www.w3.org/1999/xlink" preserveAspectRatio="xMidYMid" width="18" height="16" viewBox="0 0 14 16">
  <defs>
    <style>
      .cls-1 {
        fill: #b7c0cd;
        fill-rule: evenodd;
      }
    </style>
  </defs>
  <path d="M13.000,16.000 L4.000,16.000 L2.000,16.000 C0.895,16.000 0.000,15.105 0.000,14.000 L0.000,2.000 C0.000,0.895 0.895,-0.000 2.000,-0.000 L4.000,-0.000 L12.000,-0.000 L13.000,-0.000 C13.552,-0.000 14.000,0.448 14.000,1.000 L14.000,2.000 L14.000,10.031 L14.000,12.000 L14.000,14.000 L14.000,14.500 L14.000,15.000 C14.000,15.552 13.552,16.000 13.000,16.000 ZM12.000,2.500 C12.000,2.224 11.776,2.000 11.500,2.000 L4.500,2.000 C4.224,2.000 4.000,2.224 4.000,2.500 L4.000,9.531 C4.000,9.807 4.224,10.031 4.500,10.031 L11.500,10.031 C11.776,10.031 12.000,9.807 12.000,9.531 L12.000,2.500 ZM12.000,12.500 C12.000,12.224 11.776,12.000 11.500,12.000 L4.000,12.000 L2.990,12.000 C2.443,12.000 2.000,12.443 2.000,12.990 L2.000,13.010 C2.000,13.557 2.443,14.000 2.990,14.000 L4.000,14.000 L11.500,14.000 C11.776,14.000 12.000,13.776 12.000,13.500 L12.000,12.500 ZM9.500,6.000 L6.500,6.000 C6.224,6.000 6.000,5.776 6.000,5.500 L6.000,4.500 C6.000,4.224 6.224,4.000 6.500,4.000 L9.500,4.000 C9.776,4.000 10.000,4.224 10.000,4.500 L10.000,5.500 C10.000,5.776 9.776,6.000 9.500,6.000 Z" class="cls-1"/>
</svg>
