<svg xmlns="http://www.w3.org/2000/svg" xmlns:xlink="http://www.w3.org/1999/xlink" preserveAspectRatio="xMidYMid" width="16" height="16" viewBox="0 0 16 16">
  <defs>
    <style>
      .cls-1 {
        fill: #b7c0cd;
        fill-rule: evenodd;
      }
    </style>
  </defs>
  <path d="M2.000,16.000 L1.000,16.000 C0.448,16.000 -0.000,15.552 -0.000,15.000 L-0.000,14.000 L-0.000,-0.000 L2.000,-0.000 L2.000,14.000 L16.000,14.000 L16.000,16.000 L2.000,16.000 ZM14.500,12.000 L13.500,12.000 C13.224,12.000 13.000,11.776 13.000,11.500 L13.000,4.500 C13.000,4.224 13.224,4.000 13.500,4.000 L14.500,4.000 C14.776,4.000 15.000,4.224 15.000,4.500 L15.000,11.500 C15.000,11.776 14.776,12.000 14.500,12.000 ZM11.500,12.000 L10.500,12.000 C10.224,12.000 10.000,11.776 10.000,11.500 L10.000,8.500 C10.000,8.224 10.224,8.000 10.500,8.000 L11.500,8.000 C11.776,8.000 12.000,8.224 12.000,8.500 L12.000,11.500 C12.000,11.776 11.776,12.000 11.500,12.000 ZM8.500,12.000 L7.500,12.000 C7.224,12.000 7.000,11.776 7.000,11.500 L7.000,2.500 C7.000,2.224 7.224,2.000 7.500,2.000 L8.500,2.000 C8.776,2.000 9.000,2.224 9.000,2.500 L9.000,11.500 C9.000,11.776 8.776,12.000 8.500,12.000 ZM5.500,12.000 L4.500,12.000 C4.224,12.000 4.000,11.776 4.000,11.500 L4.000,6.500 C4.000,6.224 4.224,6.000 4.500,6.000 L5.500,6.000 C5.776,6.000 6.000,6.224 6.000,6.500 L6.000,11.500 C6.000,11.776 5.776,12.000 5.500,12.000 Z" class="cls-1"/>
</svg>
