<svg xmlns="http://www.w3.org/2000/svg" xmlns:xlink="http://www.w3.org/1999/xlink" preserveAspectRatio="xMidYMid" width="16" height="16" viewBox="0 0 16 16">
  <defs>
    <style>
      .cls-1 {
        fill: #475364;
        fill-rule: evenodd;
      }
    </style>
  </defs>
  <path d="M15.000,16.000 L10.000,16.000 C9.448,16.000 9.000,15.552 9.000,15.000 L9.000,10.000 C9.000,9.448 9.448,9.000 10.000,9.000 L15.000,9.000 C15.552,9.000 16.000,9.448 16.000,10.000 L16.000,15.000 C16.000,15.552 15.552,16.000 15.000,16.000 ZM14.000,11.000 L11.000,11.000 L11.000,14.000 L14.000,14.000 L14.000,11.000 ZM15.000,7.000 L10.000,7.000 C9.448,7.000 9.000,6.552 9.000,6.000 L9.000,1.000 C9.000,0.448 9.448,0.000 10.000,0.000 L15.000,0.000 C15.552,0.000 16.000,0.448 16.000,1.000 L16.000,6.000 C16.000,6.552 15.552,7.000 15.000,7.000 ZM14.000,2.000 L11.000,2.000 L11.000,5.000 L14.000,5.000 L14.000,2.000 ZM6.000,16.000 L1.000,16.000 C0.448,16.000 0.000,15.552 0.000,15.000 L0.000,10.000 C0.000,9.448 0.448,9.000 1.000,9.000 L6.000,9.000 C6.552,9.000 7.000,9.448 7.000,10.000 L7.000,15.000 C7.000,15.552 6.552,16.000 6.000,16.000 ZM5.000,11.000 L2.000,11.000 L2.000,14.000 L5.000,14.000 L5.000,11.000 ZM6.000,7.000 L1.000,7.000 C0.448,7.000 0.000,6.552 0.000,6.000 L0.000,1.000 C0.000,0.448 0.448,0.000 1.000,0.000 L6.000,0.000 C6.552,0.000 7.000,0.448 7.000,1.000 L7.000,6.000 C7.000,6.552 6.552,7.000 6.000,7.000 ZM5.000,2.000 L2.000,2.000 L2.000,5.000 L5.000,5.000 L5.000,2.000 Z" class="cls-1"/>
</svg>
