<svg xmlns="http://www.w3.org/2000/svg" xmlns:xlink="http://www.w3.org/1999/xlink" preserveAspectRatio="xMidYMid" width="60" height="60" viewBox="0 0 60 60">
  <defs>
    <style>
      .cls-1 {
        fill: url(#linear-gradient-1);
      }

      .cls-1, .cls-2 {
        fill-rule: evenodd;
      }

      .cls-2 {
        fill: #fff;
      }
    </style>

    <linearGradient id="linear-gradient-1" gradientUnits="userSpaceOnUse" x1="30" x2="30" y2="60">
      <stop offset="0" stop-color="#f45438"/>
      <stop offset="1" stop-color="#cb270a"/>
    </linearGradient>
  </defs>
  <g>
    <path d="M30.000,-0.000 C46.568,-0.000 60.000,13.431 60.000,30.000 C60.000,46.569 46.568,60.000 30.000,60.000 C13.431,60.000 0.000,46.569 0.000,30.000 C0.000,13.431 13.431,-0.000 30.000,-0.000 Z" class="cls-1"/>
    <path d="M43.999,41.000 C39.999,41.000 36.479,34.333 30.479,34.333 C23.062,34.333 22.333,41.083 16.916,41.083 C10.499,41.083 15.416,18.000 23.999,18.000 C25.249,18.000 28.166,20.000 30.500,20.000 C32.833,20.000 35.583,18.000 37.000,18.000 C45.583,18.000 50.416,41.000 43.999,41.000 ZM23.499,22.000 C21.014,22.000 19.000,24.015 19.000,26.500 C19.000,28.985 21.014,31.000 23.499,31.000 C25.985,31.000 27.999,28.985 27.999,26.500 C27.999,24.015 25.985,22.000 23.499,22.000 ZM35.437,26.500 C34.885,26.500 34.437,26.948 34.437,27.500 C34.437,28.052 34.885,28.500 35.437,28.500 C35.989,28.500 36.437,28.052 36.437,27.500 C36.437,26.948 35.989,26.500 35.437,26.500 ZM38.499,23.500 C37.947,23.500 37.500,23.948 37.500,24.500 C37.500,25.052 37.947,25.500 38.499,25.500 C39.052,25.500 39.500,25.052 39.500,24.500 C39.500,23.948 39.052,23.500 38.499,23.500 ZM38.499,29.500 C37.947,29.500 37.500,29.948 37.500,30.500 C37.500,31.052 37.947,31.500 38.499,31.500 C39.052,31.500 39.500,31.052 39.500,30.500 C39.500,29.948 39.052,29.500 38.499,29.500 ZM41.500,26.500 C40.947,26.500 40.499,26.948 40.499,27.500 C40.499,28.052 40.947,28.500 41.500,28.500 C42.052,28.500 42.499,28.052 42.499,27.500 C42.499,26.948 42.052,26.500 41.500,26.500 ZM23.499,29.000 C22.119,29.000 20.999,27.881 20.999,26.500 C20.999,25.119 22.119,24.000 23.499,24.000 C24.880,24.000 25.999,25.119 25.999,26.500 C25.999,27.881 24.880,29.000 23.499,29.000 Z" class="cls-2"/>
  </g>
</svg>
