<svg xmlns="http://www.w3.org/2000/svg" xmlns:xlink="http://www.w3.org/1999/xlink" preserveAspectRatio="xMidYMid" width="60" height="60" viewBox="0 0 60 60">
  <defs>
    <style>
      .cls-1 {
        fill: url(#linear-gradient-1);
      }

      .cls-1, .cls-2 {
        fill-rule: evenodd;
      }

      .cls-2 {
        fill: #fff;
      }
    </style>

    <linearGradient id="linear-gradient-1" gradientUnits="userSpaceOnUse" x1="30" y1="60" x2="30">
      <stop offset="0" stop-color="#7f5be6"/>
      <stop offset="0.01" stop-color="#7f5be6"/>
      <stop offset="1" stop-color="#9d8fe3"/>
    </linearGradient>
  </defs>
  <g>
    <path d="M30.000,-0.000 C46.568,-0.000 60.000,13.431 60.000,30.000 C60.000,46.569 46.568,60.000 30.000,60.000 C13.431,60.000 0.000,46.569 0.000,30.000 C0.000,13.431 13.431,-0.000 30.000,-0.000 Z" class="cls-1"/>
    <path d="M37.871,45.431 C37.871,45.431 38.206,43.420 36.140,40.963 C38.150,35.323 38.430,30.185 38.430,30.185 C38.430,30.185 42.562,31.134 42.562,35.211 C42.562,42.192 37.871,45.431 37.871,45.431 ZM26.479,42.980 C26.479,42.980 23.711,34.098 23.711,30.412 C23.711,28.754 23.898,27.279 24.188,25.941 L36.799,25.941 C37.092,27.280 37.280,28.756 37.280,30.413 C37.280,34.043 34.521,42.980 34.521,42.980 L26.479,42.980 ZM30.491,27.971 C29.072,27.971 27.922,29.121 27.922,30.540 C27.922,31.959 29.072,33.109 30.491,33.109 C31.909,33.109 33.059,31.959 33.059,30.540 C33.059,29.121 31.909,27.971 30.491,27.971 ZM29.937,16.498 L29.937,13.000 L30.937,13.000 L30.937,16.409 C32.080,17.241 35.174,19.887 36.572,24.985 L24.413,24.985 C25.765,20.028 28.708,17.411 29.937,16.498 ZM23.128,45.431 C23.128,45.431 18.437,42.192 18.437,35.211 C18.437,31.134 22.570,30.185 22.570,30.185 C22.570,30.185 22.849,35.323 24.859,40.963 C22.793,43.420 23.128,45.431 23.128,45.431 ZM32.191,45.947 L31.353,45.109 L30.460,47.901 L29.399,45.109 L28.673,46.561 L27.612,43.936 L33.364,43.936 L32.191,45.947 Z" class="cls-2"/>
  </g>
</svg>
