<svg xmlns="http://www.w3.org/2000/svg" xmlns:xlink="http://www.w3.org/1999/xlink" preserveAspectRatio="xMidYMid" width="18" height="16" viewBox="0 0 18 16">
  <defs>
    <style>
      .cls-1 {
        fill: #b7c0cd;
        fill-rule: evenodd;
      }
    </style>
  </defs>
  <path d="M17.996,11.009 L17.996,14.996 C17.996,15.548 17.548,15.996 16.995,15.996 L4.985,15.996 C4.985,15.996 4.985,15.996 4.985,15.996 L0.993,15.996 C0.440,15.996 -0.007,15.548 -0.007,14.996 L-0.007,0.993 C-0.007,0.440 0.440,-0.007 0.993,-0.007 L16.995,-0.007 C17.548,-0.007 17.996,0.440 17.996,0.993 L17.996,11.009 C17.996,11.009 17.996,11.009 17.996,11.009 ZM15.995,13.495 L15.995,11.389 L12.999,8.392 L7.396,13.995 L15.495,13.995 C15.771,13.995 15.995,13.771 15.995,13.495 ZM15.495,1.993 L2.493,1.993 C2.217,1.993 1.993,2.217 1.993,2.493 L1.993,12.995 L1.993,13.495 C1.993,13.771 2.217,13.995 2.493,13.995 L2.993,13.995 L4.591,13.995 L12.243,6.343 C12.259,6.324 12.265,6.301 12.283,6.283 C12.479,6.087 12.736,5.993 12.992,5.996 C13.250,5.993 13.508,6.088 13.705,6.284 C13.727,6.306 13.735,6.335 13.754,6.359 L15.995,8.600 L15.995,2.493 C15.995,2.217 15.771,1.993 15.495,1.993 ZM5.994,7.994 C4.889,7.994 3.993,7.099 3.993,5.994 C3.993,4.889 4.889,3.993 5.994,3.993 C7.098,3.993 7.994,4.889 7.994,5.994 C7.994,7.099 7.098,7.994 5.994,7.994 Z" class="cls-1"/>
</svg>
