<svg xmlns="http://www.w3.org/2000/svg" xmlns:xlink="http://www.w3.org/1999/xlink" preserveAspectRatio="xMidYMid" width="16" height="16" viewBox="0 0 16 16">
  <defs>
    <style>
      .cls-1 {
        fill: #475364;
        fill-rule: evenodd;
      }
    </style>
  </defs>
  <path d="M16.000,7.000 L16.000,9.000 L13.909,9.000 C13.760,9.886 13.408,10.699 12.915,11.407 L15.012,13.231 L13.568,15.013 L11.256,13.003 C10.583,13.440 9.825,13.760 9.000,13.899 L9.000,16.000 L7.000,16.000 L7.000,13.909 C6.173,13.770 5.414,13.448 4.740,13.006 L2.432,15.013 L0.988,13.231 L3.089,11.404 C2.600,10.696 2.250,9.884 2.101,9.000 L-0.000,9.000 L-0.000,7.000 L2.091,7.000 C2.240,6.114 2.592,5.301 3.085,4.593 L0.988,2.769 L2.432,0.987 L4.743,2.997 C5.417,2.560 6.175,2.240 7.000,2.101 L7.000,0.000 L9.000,0.000 L9.000,2.101 C9.825,2.240 10.583,2.560 11.256,2.997 L13.568,0.987 L15.012,2.769 L12.915,4.593 C13.408,5.301 13.760,6.114 13.909,7.000 L16.000,7.000 ZM8.000,5.000 C6.343,5.000 5.000,6.343 5.000,8.000 C5.000,9.657 6.343,11.000 8.000,11.000 C9.657,11.000 11.000,9.657 11.000,8.000 C11.000,6.343 9.657,5.000 8.000,5.000 Z" class="cls-1"/>
</svg>
