<svg xmlns="http://www.w3.org/2000/svg" xmlns:xlink="http://www.w3.org/1999/xlink" preserveAspectRatio="xMidYMid" width="16" height="16" viewBox="0 0 16 16">
  <defs>
    <style>
      .cls-1 {
        fill: #9fa9ba;
        fill-rule: evenodd;
      }
    </style>
  </defs>
  <path d="M15.000,5.000 L14.000,14.000 C14.000,15.105 13.105,16.000 12.000,16.000 L4.000,16.000 C2.896,16.000 2.000,15.105 2.000,14.000 L1.000,5.000 C0.448,5.000 0.000,4.552 0.000,4.000 C0.000,3.448 0.448,3.000 1.000,3.000 L5.000,3.000 L5.000,1.000 C5.000,0.448 5.448,0.000 6.000,0.000 L10.000,0.000 C10.552,0.000 11.000,0.448 11.000,1.000 L11.000,3.000 L15.000,3.000 C15.552,3.000 16.000,3.448 16.000,4.000 C16.000,4.552 15.552,5.000 15.000,5.000 ZM8.000,2.000 C7.448,2.000 7.000,2.448 7.000,3.000 L9.000,3.000 C9.000,2.448 8.552,2.000 8.000,2.000 ZM11.000,5.000 L5.000,5.000 L3.000,5.000 L4.000,13.000 C4.000,13.552 4.448,14.000 5.000,14.000 L11.000,14.000 C11.552,14.000 12.000,13.552 12.000,13.000 L13.000,5.000 L11.000,5.000 ZM10.000,12.000 C9.448,12.000 9.000,11.552 9.000,11.000 L9.000,8.000 C9.000,7.448 9.448,7.000 10.000,7.000 C10.552,7.000 11.000,7.448 11.000,8.000 L11.000,11.000 C11.000,11.552 10.552,12.000 10.000,12.000 ZM6.000,12.000 C5.448,12.000 5.000,11.552 5.000,11.000 L5.000,8.000 C5.000,7.448 5.448,7.000 6.000,7.000 C6.552,7.000 7.000,7.448 7.000,8.000 L7.000,11.000 C7.000,11.552 6.552,12.000 6.000,12.000 Z" class="cls-1"/>
</svg>
