<svg xmlns="http://www.w3.org/2000/svg" xmlns:xlink="http://www.w3.org/1999/xlink" preserveAspectRatio="xMidYMid" width="16" height="15" viewBox="0 0 16 15">
  <defs>
    <style>
      .cls-1 {
        fill: #9fa9ba;
        fill-rule: evenodd;
      }
    </style>
  </defs>
  <path d="M14.000,15.000 L2.000,15.000 C0.895,15.000 -0.000,14.105 -0.000,13.000 L-0.000,11.000 L-0.000,10.000 C-0.000,9.448 0.448,9.000 1.000,9.000 C1.552,9.000 2.000,9.448 2.000,10.000 L2.000,11.000 L2.000,12.000 C2.000,12.552 2.448,13.000 3.000,13.000 L13.000,13.000 C13.552,13.000 14.000,12.552 14.000,12.000 L14.000,11.000 L14.000,10.000 C14.000,9.448 14.448,9.000 15.000,9.000 C15.552,9.000 16.000,9.448 16.000,10.000 L16.000,11.000 L16.000,13.000 C16.000,14.105 15.105,15.000 14.000,15.000 ZM10.278,4.727 L9.000,3.456 L9.000,10.000 C9.000,10.552 8.552,11.000 8.000,11.000 C7.448,11.000 7.000,10.552 7.000,10.000 L7.000,3.380 L5.691,4.719 C5.300,5.110 4.665,5.110 4.274,4.719 C3.883,4.328 3.883,3.695 4.274,3.305 L7.241,0.289 C7.429,0.102 7.683,-0.004 7.949,-0.004 C7.961,-0.004 7.972,0.003 7.984,0.003 C7.990,0.003 7.994,0.000 8.000,0.000 C8.336,0.000 8.619,0.177 8.800,0.431 L11.695,3.313 C12.086,3.704 12.086,4.336 11.695,4.727 C11.303,5.118 10.669,5.118 10.278,4.727 Z" class="cls-1"/>
</svg>
