<svg xmlns="http://www.w3.org/2000/svg" xmlns:xlink="http://www.w3.org/1999/xlink" preserveAspectRatio="xMidYMid" width="16" height="16" viewBox="0 0 16 16">
  <defs>
    <style>
      .cls-1 {
        fill: #9fa9ba;
        fill-rule: evenodd;
      }
    </style>
  </defs>
  <path d="M15.000,13.000 L14.000,13.000 L14.000,14.000 C14.000,14.552 13.552,15.000 13.000,15.000 C12.448,15.000 12.000,14.552 12.000,14.000 L12.000,13.000 L11.000,13.000 C10.448,13.000 10.000,12.552 10.000,12.000 C10.000,11.448 10.448,11.000 11.000,11.000 L12.000,11.000 L12.000,10.000 C12.000,9.448 12.448,9.000 13.000,9.000 C13.552,9.000 14.000,9.448 14.000,10.000 L14.000,11.000 L15.000,11.000 C15.552,11.000 16.000,11.448 16.000,12.000 C16.000,12.552 15.552,13.000 15.000,13.000 ZM10.139,9.141 C9.082,9.459 8.269,10.332 8.058,11.431 C7.429,11.783 6.740,12.000 6.000,12.000 C4.733,12.000 3.590,11.416 2.709,10.484 C2.279,10.851 2.000,11.390 2.000,12.000 C2.000,13.105 2.896,14.000 4.000,14.000 L8.000,14.000 C8.238,14.000 8.464,13.951 8.676,13.875 C9.052,14.341 9.560,14.687 10.148,14.862 C10.192,15.001 10.231,15.141 10.292,15.271 C9.642,15.727 8.855,16.000 8.000,16.000 L4.000,16.000 C1.791,16.000 0.000,14.209 0.000,12.000 C0.000,10.692 0.637,9.541 1.608,8.811 C1.233,7.969 1.000,7.022 1.000,6.000 C1.000,2.686 3.239,0.000 6.000,0.000 C8.762,0.000 11.000,2.686 11.000,6.000 C11.000,6.767 10.869,7.492 10.645,8.163 C10.419,8.452 10.250,8.783 10.139,9.141 ZM6.000,2.000 C4.343,2.000 3.000,3.791 3.000,6.000 C3.000,8.209 4.343,10.000 6.000,10.000 C7.657,10.000 9.000,8.209 9.000,6.000 C9.000,3.791 7.657,2.000 6.000,2.000 Z" class="cls-1"/>
</svg>
