<svg xmlns="http://www.w3.org/2000/svg" xmlns:xlink="http://www.w3.org/1999/xlink" preserveAspectRatio="xMidYMid" width="18" height="12" viewBox="0 0 18 12">
  <defs>
    <style>
      .cls-1 {
        fill: #b7c0cd;
        fill-rule: evenodd;
      }
    </style>
  </defs>
  <path d="M17.001,11.000 C16.885,11.000 16.766,10.977 16.649,10.929 L12.000,9.017 L12.000,11.000 C12.000,11.552 11.552,12.000 11.000,12.000 L1.000,12.000 C0.448,12.000 0.000,11.552 0.000,11.000 L0.000,1.000 C0.000,0.448 0.448,-0.000 1.000,-0.000 L11.000,-0.000 C11.552,-0.000 12.000,0.448 12.000,1.000 L12.000,2.983 L16.649,1.071 C16.766,1.023 16.885,1.000 17.001,1.000 C17.531,1.000 18.000,1.470 18.000,2.098 L18.000,9.902 C18.000,10.530 17.531,11.000 17.001,11.000 ZM10.000,3.000 L10.000,2.500 C10.000,2.224 9.776,2.000 9.500,2.000 L9.000,2.000 L2.500,2.000 C2.224,2.000 2.000,2.224 2.000,2.500 L2.000,9.500 C2.000,9.776 2.224,10.000 2.500,10.000 L9.500,10.000 C9.776,10.000 10.000,9.776 10.000,9.500 L10.000,8.194 L10.000,3.806 L10.000,3.000 ZM16.000,3.500 L12.000,5.146 L12.000,6.854 L16.000,8.500 L16.000,3.500 Z" class="cls-1"/>
</svg>
